# xmcd
#
# Track frame offsets: 
#        150
#        1982
#        20657
#        40722
#        56055
#        75172
#        83630
#        86200
#        106937
#        116975
#        136252
#        152222
#        172295
#        191420
#        208112
#        221165
#        225417
#        244410
#        292707
#
# Disc length: 3962 seconds
#
# Revision: 1
# Processed by: cddbd v1.5.2PL0 Copyright (c) Steve Scherf et al.
# Submitted via: ExactAudioCopyFreeDBPlugin 1.0
#
DISCID=020f7813
DTITLE=Angie Martinez - Up Close And Personal
DYEAR=2001
DGENRE=Hip-Hop
TTITLE0=Heart And Soul (Intro)
TTITLE1=New York, New York Feat. Prodigy and DJ Clue
TTITLE2=Every Little Girl Feat. The Product G&B
TTITLE3=Coast 2 Coast Feat. Wyclef Jean
TTITLE4=Ladies and Gents Feat. Snoop Doggy Dogg
TTITLE5=Gutter 2 The Fancy Shit Feat. Busta Rhymes
TTITLE6=Back From Cuba (Interlude)
TTITLE7=Live At Jimmy's Feat. Big Pun, Cuban Link, Domingo and Sunkiss
TTITLE8=Silly Niggaz (Interlude) Feat. Uneek
TTITLE9=No Playaz Feat. Lil' Mo and Sunshine
TTITLE10=Breathe Feat. Mary J. Blige and La India
TTITLE11=Live From The Streets
TTITLE12=Go!! Muthafucka
TTITLE13=Thug Love Feat. Fat Joe and Lazie Bone
TTITLE14=Mi Amor Feat. Jay-Z
TTITLE15=Ladies Fight (Interlude)
TTITLE16=Dem Thangz (Dem Thangz)
TTITLE17=Coast 2 Coast (Suavemente-Remix) Feat. Wyclef Jean
TTITLE18=Data
EXTD=
EXTT0=
EXTT1=
EXTT2=
EXTT3=
EXTT4=
EXTT5=
EXTT6=
EXTT7=
EXTT8=
EXTT9=
EXTT10=
EXTT11=
EXTT12=
EXTT13=
EXTT14=
EXTT15=
EXTT16=
EXTT17=
EXTT18=
PLAYORDER=
